<!-- <?xml version="1.0"?>
<svg xmlns="http://www.w3.org/2000/svg" xmlns:xlink="http://www.w3.org/1999/xlink" version="1.1" id="Layer_1" x="0px" y="0px" viewBox="0 0 512 512" style="enable-background:new 0 0 512 512;" xml:space="preserve" width="45px" height="45px"><g><g>
	<g>
		<path d="M256,0C161.896,0,85.333,76.563,85.333,170.667c0,28.25,7.063,56.26,20.49,81.104L246.667,506.5    c1.875,3.396,5.448,5.5,9.333,5.5s7.458-2.104,9.333-5.5l140.896-254.813c13.375-24.76,20.438-52.771,20.438-81.021    C426.667,76.563,350.104,0,256,0z M256,256c-47.052,0-85.333-38.281-85.333-85.333c0-47.052,38.281-85.333,85.333-85.333    s85.333,38.281,85.333,85.333C341.333,217.719,303.052,256,256,256z" data-original="#000000" class="active-path" data-old_color="#000000" fill="#FFCE00"/>
	</g>
</g></g> </svg> -->


<svg baseProfile="basic" xmlns="http://www.w3.org/2000/svg" width="48" height="48" viewBox="0 0 48 48">
<path d="M24 0c-9.8 0-17.7 7.8-17.7 17.4 0 15.5 17.7 30.6 17.7 30.6s17.7-15.4 17.7-30.6c0-9.6-7.9-17.4-17.7-17.4z"></path>
</svg>

